<svg width="800" height="400" viewBox="0 0 800 400" xmlns="http://www.w3.org/2000/svg">
    <!-- Sky background -->
    <rect width="800" height="400" fill="#6fb0ff"/>

    <!-- Soft curved sky bands -->
    <circle cx="-120" cy="200" r="500" fill="#8cc2ff" opacity="0.6"/>
    <circle cx="-120" cy="200" r="430" fill="#9fd0ff" opacity="0.5"/>
    <circle cx="-120" cy="200" r="70" fill="#9fd0ff" opacity="0.5"/>

    <path
            d="M520 120
           C520 95, 555 45, 585 100
           C600 75, 645 25, 665 100
           C695 95, 720 85, 720 135
           Z"
            fill="#cfe6ff"
    />
    <g transform="translate(550, 200)">
        <path d="M0 20
                 C-30 20, -30 -10, 0 -10
                 C10 -30, 40 -30, 50 -10
                 C80 -10, 80 20, 50 25
                 C40 50, 10 45, 0 20 Z"
              fill="white" opacity="0.9"/>
        <path d="M30 10
                 C10 10, 10 -10, 30 -10
                 C40 -25, 70 -20, 60 0
                 C80 10, 50 30, 30 10 Z"
              fill="white" opacity="0.8"/>
        <path d="M-20 10
                 C-40 10, -40 -10, -20 -15
                 C-10 -30, 20 -25, 10 -5
                 C0 0, -10 15, -20 10 Z"
              fill="white" opacity="0.85"/>
    </g>
</svg>
