<svg xmlns="http://www.w3.org/2000/svg"
     width="600" height="500"
     viewBox="0 0 3000 3000"
     preserveAspectRatio="xMidYMid meet">

    <defs>
        <!-- Smooth gradient -->
        <linearGradient id="fancyGrad" x1="0%" y1="0%" x2="100%" y2="100%">
            <stop offset="0%" stop-color="#ff6ec4"/>
            <stop offset="50%" stop-color="#7873f5"/>
            <stop offset="100%" stop-color="#4adeff"/>
        </linearGradient>

        <!-- High-resolution glow -->
        <filter id="softGlow" x="-40%" y="-40%" width="180%" height="180%">
            <feGaussianBlur in="SourceGraphic" stdDeviation="40" result="blur"/>
            <feMerge>
                <feMergeNode in="blur"/>
                <feMergeNode in="SourceGraphic"/>
            </feMerge>
        </filter>
    </defs>

    <!-- Correct upward orientation: flipped vertically without distortion -->
    <g transform="scale(1,-1) translate(0,-3000)"
       fill="url(#fancyGrad)"
       filter="url(#softGlow)"
       stroke="none">

        <path d="M1291 2927 c-22 -11 -42 -74 -203 -647 -254 -901 -229 -787 -211
      -965 8 -82 16 -265 16 -405 2 -248 1 -256 -21 -302 -32 -64 -129 -152 -241
      -218 -51 -30 -95 -58 -98 -63 -9 -16 23 -40 45 -33 36 12 196 116 235 154
      35 34 39 35 48 19 23 -39 74 -88 132 -127 67 -44 197 -90 253 -90 43 0 43
      -11 -1 -44 -36 -28 -46 -62 -21 -72 19 -7 81 42 131 106 73 91 122 183 152
      280 2 8 21 -21 43 -67 77 -165 187 -295 304 -362 56 -32 86 -33 86 -1 0 11
      -20 29 -53 48 -29 16 -75 50 -102 75 l-50 46 31 1 c108 1 273 91 345 187
      l33 43 40 -39 c41 -40 200 -145 238 -157 22 -7 54 17 45 33 -3 5 -47 33 -98
      63 -112 66 -209 154 -241 218 -22 45 -23 57 -23 277 0 127 7 300 14 385 8
      85 14 171 14 190 0 36 -447 1435 -465 1458 -14 17 -103 15 -138 -3 -15 -8
      -37 -26 -48 -40 l-20 -25 -16 25 c-30 46 -113 74 -155 52z
      M1376 2861 c39 -24 51 -59 62 -179 8 -91 7 -93 -13 -86 -11 3 -41 9 -67 11
      -40 4 -48 2 -61 -19 -14 -22 -217 -934 -217 -975 0 -23 28 -39 43 -24 5 5
      54 213 108 463 54 249 101 463 104 476 8 32 57 30 84 -4 27 -34 39 -104 44
      -256 l4 -127 -28 20 c-38 26 -91 35 -106 17 -10 -12 -83 -721 -83 -806 0
      -35 23 -53 42 -34 10 10 77 655 78 750 0 48 6 51 44 21 57 -45 55 -24 67
      -738 10 -601 10 -667 -5 -741 -18 -88 -48 -175 -70 -205 -13 -18 -19 -19
      -96 -7 -95 13 -174 47 -239 100 -45 36 -110 102 -111 112 -1 3 -3 120 -5
      260 -2 140 -10 328 -19 416 l-16 162 94 333 c246 873 296 1055 296 1067 0
      18 30 15 66 -7z
      M1853 2103 l227 -708 -16 -160 c-8 -88 -17 -275 -19 -415 l-3 -255 -33 -39
      c-67 -80 -210 -152 -324 -163 l-61 -6 -31 69 c-46 104 -56 142 -49 188 3 22
      1 330 -5 683 -8 486 -8 651 1 678 10 30 75 95 84 84 2 -2 22 -179 45 -393
      23 -214 44 -393 47 -398 7 -11 41 -10 48 1 10 15 -83 823 -96 838 -17 21
      -72 10 -115 -23 l-35 -27 3 169 c4 149 6 173 25 204 18 31 66 61 78 49 3 -2
      54 -218 115 -478 60 -260 114 -478 119 -483 14 -14 42 2 42 24 0 35 -220
      971 -232 985 -13 16 -71 17 -101 2 -12 -6 -32 -23 -44 -37 l-23 -27 -2 80
      c-5 144 -2 180 18 209 18 28 64 55 94 56 11 0 74 -182 243 -707z"/>
    </g>

</svg>
